<svg width="24" height="24" viewBox="0 0 24 24" fill="none" xmlns="http://www.w3.org/2000/svg">
<path d="M6.22448 15.4879C6.56949 15.9191 6.49957 16.5484 6.06831 16.8934C5.63704 17.2384 5.00775 17.1685 4.66274 16.7373L0.15979 11.1086L4.66664 5.54629C5.01433 5.11718 5.64404 5.05117 6.07315 5.39886C6.50226 5.74654 6.56827 6.37626 6.22058 6.80537L2.72743 11.1166L6.22448 15.4879ZM16.379 15.4879L19.876 11.1166L16.3829 6.80537C16.0352 6.37626 16.1012 5.74654 16.5303 5.39886C16.9594 5.05117 17.5891 5.11718 17.9368 5.54629L22.4436 11.1086L17.9407 16.7373C17.5957 17.1685 16.9664 17.2384 16.5351 16.8934C16.1039 16.5484 16.0339 15.9191 16.379 15.4879ZM14.4051 4.38728L10.4051 18.3873C10.2534 18.9183 9.69993 19.2258 9.16889 19.0741C8.63786 18.9224 8.33036 18.3689 8.48209 17.8378L12.4821 3.83784C12.6338 3.3068 13.1873 2.99931 13.7183 3.15104C14.2494 3.30276 14.5569 3.85624 14.4051 4.38728Z" fill="white"/>
</svg>
