<svg width="24" height="24" viewBox="0 0 24 24" fill="none" xmlns="http://www.w3.org/2000/svg">
<path d="M4 4.00139V19.9986C4 21.105 4.89249 22 5.99255 22H18.0074C19.0993 22 20 21.0994 20 19.9986V4.00139C20 2.89498 19.1075 2 18.0074 2H5.99255C4.90068 2 4 2.9006 4 4.00139ZM3 4.00139C3 2.34377 4.35294 1 5.99255 1H18.0074C19.6602 1 21 2.34308 21 4.00139V19.9986C21 21.6562 19.6471 23 18.0074 23H5.99255C4.33982 23 3 21.6569 3 19.9986V4.00139ZM16.6461 19H7.51654L9.33734 14.7515L11.3911 16.8053L13.9066 10.097L16.6461 19ZM11 15L10.0444 14.0444C9.65391 13.6539 9.02071 13.6539 8.63019 14.0444C8.54023 14.1344 8.46827 14.2407 8.41815 14.3576L6.59741 18.6061C6.37986 19.1137 6.61499 19.7016 7.12262 19.9191C7.2471 19.9725 7.38111 20 7.51654 20H16.6461C17.1983 20 17.6461 19.5523 17.6461 19C17.6461 18.9003 17.6311 18.8012 17.6018 18.7059L14.8624 9.80287C14.7 9.27501 14.1404 8.97876 13.6125 9.14117C13.3163 9.23232 13.0792 9.45565 12.9703 9.74583L11 15ZM8.5 8C7.67157 8 7 7.32843 7 6.5C7 5.67157 7.67157 5 8.5 5C9.32843 5 10 5.67157 10 6.5C10 7.32843 9.32843 8 8.5 8ZM8.5 9C9.88071 9 11 7.88071 11 6.5C11 5.11929 9.88071 4 8.5 4C7.11929 4 6 5.11929 6 6.5C6 7.88071 7.11929 9 8.5 9Z" fill="white"/>
</svg>
