<svg width="24" height="24" viewBox="0 0 24 24" fill="none" xmlns="http://www.w3.org/2000/svg">
<path d="M18.9917 11.4347L19.7654 9.91634C21.1276 10.6507 22 12.1032 22 13.7143C22 16.0812 20.1345 18 17.8333 18H10.3333C8.03215 18 6.16667 16.0812 6.16667 13.7143C6.16667 11.3474 8.03215 9.42857 10.3333 9.42857H14.5141V11.1429H10.3333C8.95262 11.1429 7.83333 12.2941 7.83333 13.7143C7.83333 15.1344 8.95262 16.2857 10.3333 16.2857H17.8333C19.214 16.2857 20.3333 15.1344 20.3333 13.7143C20.3333 12.747 19.8101 11.8759 18.9917 11.4347ZM5.00832 12.5653L4.23465 14.0837C2.87243 13.3493 2 11.8968 2 10.2857C2 7.91878 3.86548 6 6.16667 6H13.6667C15.9679 6 17.8333 7.91878 17.8333 10.2857C17.8333 12.6526 15.9679 14.5714 13.6667 14.5714H9.48586V12.8571H13.6667C15.0474 12.8571 16.1667 11.7059 16.1667 10.2857C16.1667 8.86555 15.0474 7.71429 13.6667 7.71429H6.16667C4.78595 7.71429 3.66667 8.86555 3.66667 10.2857C3.66667 11.253 4.18987 12.1241 5.00832 12.5653Z" fill="white"/>
</svg>
