<svg width="24" height="24" viewBox="0 0 24 24" fill="none" xmlns="http://www.w3.org/2000/svg">
<path d="M7.09763 14.5H5.44388L5.32695 15.4366C5.26992 15.8933 4.85346 16.2173 4.39677 16.1602C3.94008 16.1032 3.61607 15.6868 3.6731 15.2301L3.76429 14.5H3.25002C2.78978 14.5 2.41669 14.1269 2.41669 13.6667C2.41669 13.2064 2.78978 12.8333 3.25002 12.8333H3.97237L4.1805 11.1667H3.66669C3.20645 11.1667 2.83335 10.7936 2.83335 10.3333C2.83335 9.8731 3.20645 9.5 3.66669 9.5H4.38858L4.50556 8.56342C4.56259 8.10672 4.97905 7.78273 5.43574 7.83975C5.89243 7.89678 6.21639 8.31323 6.15936 8.76992L6.06822 9.5H7.72191L7.8389 8.56342C7.89592 8.10672 8.31238 7.78273 8.76907 7.83975C9.22576 7.89678 9.54972 8.31323 9.4927 8.76992L9.40155 9.5H9.91669C10.3769 9.5 10.75 9.8731 10.75 10.3333C10.75 10.7936 10.3769 11.1667 9.91669 11.1667H9.19342L8.98534 12.8333H9.49916C9.95939 12.8333 10.3325 13.2064 10.3325 13.6667C10.3325 14.1269 9.95939 14.5 9.49916 14.5H8.77721L8.66028 15.4366C8.60325 15.8933 8.18679 16.2173 7.7301 16.1602C7.27341 16.1032 6.9494 15.6868 7.00643 15.2301L7.09763 14.5ZM7.30571 12.8333L7.51383 11.1667H5.86009L5.65201 12.8333H7.30571ZM12.8334 8.66667C12.3731 8.66667 12 8.29357 12 7.83333C12 7.3731 12.3731 7 12.8334 7H21.1658C21.6261 7 21.9992 7.3731 21.9992 7.83333C21.9992 8.29357 21.6261 8.66667 21.1658 8.66667H12.8334ZM12.8334 12.8333C12.3731 12.8333 12 12.4602 12 12C12 11.5398 12.3731 11.1667 12.8334 11.1667H21.1658C21.6261 11.1667 21.9992 11.5398 21.9992 12C21.9992 12.4602 21.6261 12.8333 21.1658 12.8333H12.8334ZM12.8334 17C12.3731 17 12 16.6269 12 16.1667C12 15.7064 12.3731 15.3333 12.8334 15.3333H21.1658C21.6261 15.3333 21.9992 15.7064 21.9992 16.1667C21.9992 16.6269 21.6261 17 21.1658 17H12.8334Z" fill="white"/>
</svg>
