<svg width="24" height="24" viewBox="0 0 24 24" fill="none" xmlns="http://www.w3.org/2000/svg">
<g clip-path="url(#clip0)">
<path d="M15 13C15 12.4477 14.5523 12 14 12C9.35559 12 5.85806 13.2614 3.58799 15.7614C4.88458 10.7934 8.33577 8.26346 14.0463 7.99893C14.58 7.9742 15 7.53429 15 6.99999V5.20376L20.4814 9.99999L15 14.7962V13ZM13 17C13 17.8592 14.0119 18.3183 14.6585 17.7526L22.6585 10.7526C23.1138 10.3542 23.1138 9.64583 22.6585 9.24742L14.6585 2.24742C14.0119 1.68166 13 2.14084 13 2.99999V6.06631C5.05601 6.79186 0.986822 11.8843 0.999939 21.0014C1.00163 22.1798 2.68427 22.3857 2.97008 21.2425C4.11753 16.6529 7.37984 14.2687 13 14.0215V17Z" fill="white"/>
</g>
<defs>
<clipPath id="clip0">
<rect width="22" height="20" fill="white" transform="matrix(-1 0 0 1 23 2)"/>
</clipPath>
</defs>
</svg>
