<svg width="24" height="24" viewBox="0 0 24 24" fill="none" xmlns="http://www.w3.org/2000/svg">
<path d="M17.3408 4.31873L15.9399 5.74622C13.444 3.29692 8.79544 4.54315 8.79544 8.00367C8.79544 8.4828 8.86956 8.87718 9.01709 9.22484C9.14141 9.5365 9.24484 9.77426 9.5 10H7.20001C6.95147 9.4154 6.79544 8.74215 6.79544 8.00367C6.79544 2.58319 13.6889 0.735119 17.3408 4.31873ZM5.79871 17.7144L7.56305 16.7725C9.40424 20.2215 15.3715 19.363 15.3715 15.4105C15.3715 14.9622 15.3065 14.5879 15.2156 14.3463C15.1631 14.2376 15.1052 14.1348 15.0417 14.0378L17.2049 14.0338C17.316 14.4583 17.3715 14.9168 17.3715 15.4105C17.3715 21.6068 8.5538 22.8754 5.79871 17.7144ZM1 13L2 11H23L22 13H1Z" fill="white"/>
</svg>
