<svg width="24" height="24" viewBox="0 0 24 24" fill="none" xmlns="http://www.w3.org/2000/svg">
<path d="M7.45455 8.42857C6.95247 8.42857 6.54545 8.10878 6.54545 7.71429C6.54545 7.3198 6.95247 7 7.45455 7H21.0899C21.592 7 21.999 7.3198 21.999 7.71429C21.999 8.10878 21.592 8.42857 21.0899 8.42857H7.45455ZM7.45455 12.7143C6.95247 12.7143 6.54545 12.3945 6.54545 12C6.54545 11.6055 6.95247 11.2857 7.45455 11.2857H21.0899C21.592 11.2857 21.999 11.6055 21.999 12C21.999 12.3945 21.592 12.7143 21.0899 12.7143H7.45455ZM7.45455 17C6.95247 17 6.54545 16.6802 6.54545 16.2857C6.54545 15.8912 6.95247 15.5714 7.45455 15.5714H21.0899C21.592 15.5714 21.999 15.8912 21.999 16.2857C21.999 16.6802 21.592 17 21.0899 17H7.45455ZM2.90909 8.42857C2.40701 8.42857 2 8.10878 2 7.71429C2 7.3198 2.40701 7 2.90909 7H3.81721C4.31929 7 4.7263 7.3198 4.7263 7.71429C4.7263 8.10878 4.31929 8.42857 3.81721 8.42857H2.90909ZM2.90909 12.7143C2.40701 12.7143 2 12.3945 2 12C2 11.6055 2.40701 11.2857 2.90909 11.2857H3.81721C4.31929 11.2857 4.7263 11.6055 4.7263 12C4.7263 12.3945 4.31929 12.7143 3.81721 12.7143H2.90909ZM2.90909 17C2.40701 17 2 16.6802 2 16.2857C2 15.8912 2.40701 15.5714 2.90909 15.5714H3.81721C4.31929 15.5714 4.7263 15.8912 4.7263 16.2857C4.7263 16.6802 4.31929 17 3.81721 17H2.90909Z" fill="white"/>
</svg>
