<svg width="24" height="24" viewBox="0 0 24 24" fill="none" xmlns="http://www.w3.org/2000/svg">
<g clip-path="url(#clip0)">
<path d="M9 13C9 12.4477 9.44772 12 10 12C14.6444 12 18.1419 13.2614 20.412 15.7614C19.1154 10.7934 15.6642 8.26346 9.95373 7.99893C9.42001 7.9742 9 7.53429 9 6.99999V5.20376L3.51859 9.99999L9 14.7962V13ZM11 17C11 17.8592 9.98808 18.3183 9.3415 17.7526L1.3415 10.7526C0.886168 10.3542 0.886168 9.64583 1.3415 9.24742L9.3415 2.24742C9.98808 1.68166 11 2.14084 11 2.99999V6.06631C18.944 6.79186 23.0132 11.8843 23.0001 21.0014C22.9984 22.1798 21.3157 22.3857 21.0299 21.2425C19.8825 16.6529 16.6202 14.2687 11 14.0215V17Z" fill="white"/>
</g>
<defs>
<clipPath id="clip0">
<rect width="22" height="20" fill="white" transform="translate(1 2)"/>
</clipPath>
</defs>
</svg>
